<?xml version="1.0" encoding="utf-8"?>
<!-- Generator: Adobe Illustrator 18.0.0, SVG Export Plug-In . SVG Version: 6.00 Build 0)  -->
<!DOCTYPE svg PUBLIC "-//W3C//DTD SVG 1.1//EN" "http://www.w3.org/Graphics/SVG/1.1/DTD/svg11.dtd">
<svg version="1.1" id="Layer_1" xmlns="http://www.w3.org/2000/svg" xmlns:xlink="http://www.w3.org/1999/xlink" x="0px" y="0px"
	 viewBox="0 0 800 450" enable-background="new 0 0 800 450" xml:space="preserve">
<path fill="#07BC9B" d="M576,341.6h-56.3c-2.3,0-4.1-1.8-4.1-4.1v-52.2h-90.4v20.3h38.3c2.3,0,4.1,1.8,4.1,4v27.9
	c0,2.3-1.8,4.1-4.1,4.1H350.9c-2.3,0-4-1.8-4-4.1v-28.4c0-2.3,1.8-4.1,4-4.1h38.3v-20.3h-62.5v52.7c0,2.3-1.8,4.1-4,4.1h-98.6
	c-2.3,0-4.1-1.8-4.1-4.1V197.1c0-2.3,1.8-4.1,4.1-4.1h24.3v-80.5c0-2.3,1.8-4,4.1-4H562c2.3,0,4,1.8,4,4v122.8h10.4
	c2.3,0,4,1.8,4,4.1v98.1C579.5,339.8,577.8,341.6,576,341.6z M523.3,333.4h48.6V243h-48.6V333.4z M354.6,333.4h104.8v-20.3H354.6
	V333.4z M228.1,333.4h90.5V200.7h-90.5V333.4z M396.9,305.6h20.3v-20.3h-20.3V305.6z M326.6,277.2h189v-6.3h-189V277.2L326.6,277.2z
	 M326.6,263.3h189v-24.3c0-2.3,1.8-4.1,4.1-4.1H544V130.5H270.4v62.6h52.2c2.3,0,4.1,1.8,4.1,4.1L326.6,263.3L326.6,263.3z
	 M551.6,235.3h6.3V116.5H256.4v76.5h6.3v-66.6c0-2.3,1.8-4.1,4-4.1H548c2.3,0,4,1.8,4,4.1v108.9H551.6z M561.5,327.1h-28.3
	c-2.3,0-4.1-1.8-4.1-4.1s1.8-4,4.1-4h28.3c2.3,0,4.1,1.8,4.1,4S563.8,327.1,561.5,327.1z M308.6,327.1h-70.2c-2.3,0-4-1.8-4-4.1
	V210.6c0-2.3,1.8-4.1,4-4.1h70.2c2.3,0,4.1,1.8,4.1,4.1v112.5C312.7,325.8,310.9,327.1,308.6,327.1z M242.1,319.5h62.6V214.7h-62.6
	V319.5z M561.5,285.3c-2.3,0-4-1.8-4-4.1v-24.3h-24.3c-2.3,0-4.1-1.8-4.1-4s1.8-4.1,4.1-4.1h28.3c2.3,0,4.1,1.8,4.1,4.1v28.3
	C565.6,283.5,563.8,285.3,561.5,285.3z"/>
</svg>
