<?xml version="1.0" encoding="utf-8"?>
<!-- Generator: Adobe Illustrator 18.0.0, SVG Export Plug-In . SVG Version: 6.00 Build 0)  -->
<!DOCTYPE svg PUBLIC "-//W3C//DTD SVG 1.1//EN" "http://www.w3.org/Graphics/SVG/1.1/DTD/svg11.dtd">
<svg version="1.1" id="Layer_1" xmlns="http://www.w3.org/2000/svg" xmlns:xlink="http://www.w3.org/1999/xlink" x="0px" y="0px"
	 viewBox="0 0 800 450" enable-background="new 0 0 800 450" xml:space="preserve">
<path fill="#07BC9B" d="M505.8,397.8h-211c-14,0-25.2-11.3-25.2-25.2V247.5c0-13.9,11.3-25.2,25.2-25.2h3.1v-67.5
	c0-56.3,45.9-102.2,102.1-102.2s102.1,45.9,102.1,102.2v67.9h3.1c13.9,0,25.2,11.3,25.2,25.2V373
	C530.5,386.6,519.3,397.8,505.8,397.8z M294.7,230.4c-9.5,0-17.1,7.6-17.1,17.1v125.1c0,9.5,7.6,17.1,17.1,17.1h211
	c9.5,0,17.1-7.6,17.1-17.1V247.9c0-9.4-7.7-17.1-17.1-17.1h-211V230.4z M474.3,220.9h20.3v-66.1c0-52.2-42.3-94.5-94.5-94.5
	s-94.5,42.3-94.5,94.5v66.6h20.3v-66.6c0-40.9,33.3-74.3,74.3-74.3s74.3,33.3,74.3,74.3V220.9z M333.9,220.9h132.8v-66.1
	c0-36.4-29.7-66.6-66.6-66.6s-66.6,29.7-66.6,66.6v66.1H333.9z"/>
<path fill="#07BC9B" d="M400,369.4c-9.9,0-18-8.1-18-18v-29.7c-8.6-5.9-13.9-15.8-13.9-26.6c0-17.5,14.4-31.9,31.9-31.9
	s31.9,14.4,31.9,31.9c0,10.8-5.4,20.7-13.9,26.6v29.7C418,361.4,409.9,369.4,400,369.4z M390.1,319.5v31.9c0,5.4,4.5,10.4,10.3,10.4
	c5.9,0,10.4-4.5,10.4-10.4v-31.9v-0.4c0-0.5,0-0.9,0.4-1.4c0.5-0.4,0.5-0.9,0.9-1.4c0,0,0.4,0,0.4-0.4c7.6-4.5,12.1-12.1,12.1-21.1
	c0-13.5-10.8-24.3-24.3-24.3s-24.3,10.8-24.3,24.3c0,8.6,4.5,16.6,12.2,21.1c0,0,0.4,0,0.4,0.4c0.4,0.5,0.9,0.9,0.9,1.4
	c0.5,0.5,0.5,0.9,0.5,1.4C390.1,319.5,390.1,319.5,390.1,319.5z"/>
</svg>
