<?xml version="1.0" encoding="utf-8"?>
<!-- Generator: Adobe Illustrator 18.0.0, SVG Export Plug-In . SVG Version: 6.00 Build 0)  -->
<!DOCTYPE svg PUBLIC "-//W3C//DTD SVG 1.1//EN" "http://www.w3.org/Graphics/SVG/1.1/DTD/svg11.dtd">
<svg version="1.1" id="Layer_1" xmlns="http://www.w3.org/2000/svg" xmlns:xlink="http://www.w3.org/1999/xlink" x="0px" y="0px"
	 viewBox="0 0 800 450" enable-background="new 0 0 800 450" xml:space="preserve">
<path fill="#07BC9B" d="M456.3,341.6H343.8c-2.3,0-4.1-1.8-4.1-4.1v-28.4c0-2.3,1.8-4.1,4.1-4.1H382v-20.3H245.2c-2.3,0-4-1.8-4-4
	V112.5c0-2.3,1.8-4,4-4h309.6c2.3,0,4.1,1.8,4.1,4v168.8c0,2.3-1.8,4.1-4.1,4.1H418v20.3h38.3c2.3,0,4.1,1.8,4.1,4v27.9
	C460.3,339.8,458.5,341.6,456.3,341.6z M347.8,333.4h104.8v-20.3H347.8V333.4z M389.6,305.6h20.3v-20.3h-20.3V305.6z M249.3,277.2
	h301.5V116.5H249.3V277.2z"/>
<path fill="#07BC9B" d="M540.9,270.9H259.6c-2.3,0-4.1-1.8-4.1-4V126.5c0-2.3,1.8-4.1,4.1-4.1h281.3c0,0,0,0,0.4,0
	c0.5,0,0.9,0,1.4,0.5c0.5,0,0.9,0.4,1.4,0.9c0.4,0.5,0.4,0.9,0.9,1.3c0,0.4,0,0.9,0,1.3v140.4C544.5,269.6,542.6,270.9,540.9,270.9z
	 M268.6,263.3h267.8V134.6l-36,27c0.9,2.3,1.4,4.5,1.4,7.2c0,9.9-8.1,18-18,18c-4,0-8.1-1.3-11.3-4.1l-42.8,34.2
	c1.4,2.3,1.8,4.9,1.8,8.1c0,9.9-8.1,18-18,18c-9.4,0-17.1-7.2-18-16.7l-63.9-9c-2.7,6.8-9,11.7-17.1,11.7c-3.6,0-6.8-0.9-9.9-2.7
	L268.6,263.3z M263.2,130.5v127.4l37.4-37.4c-1.8-2.7-2.7-6.3-2.7-9.9c0-9.9,8.1-18,18-18c9.5,0,17.1,7.2,18,16.7l63.9,9
	c2.7-6.8,9-11.7,17.1-11.7c4.1,0,8.1,1.4,11.3,4.1l42.8-34.2c-1.4-2.3-1.8-4.9-1.8-8.1c0-9.9,8.1-18,18-18c4.5,0,8.5,1.4,11.7,4.5
	l32.9-24.8L263.2,130.5L263.2,130.5z M404.1,223.7c0,0.4,0,0.9,0,1.3c0,5.4,4.5,10.3,10.3,10.3c5.9,0,10.4-4.5,10.4-10.3
	c0-2.3-0.9-4.5-2.3-6.3l0,0l0,0c-1.8-2.3-4.5-3.6-7.6-3.6C409,214.7,404.5,218.7,404.1,223.7L404.1,223.7L404.1,223.7z M308.6,218.3
	c1.8,1.8,4.5,2.7,7.2,2.7c5,0,9.5-3.6,9.9-8.6l0,0l0,0c0-0.4,0-0.9,0-1.4c0-5.4-4.5-10.3-10.4-10.3c-5.8,0-10.3,4.5-10.3,10.3
	C305.5,213.8,306.4,216.4,308.6,218.3C308.6,217.8,308.6,218.3,308.6,218.3L308.6,218.3z M476.5,175.5c1.8,2.3,4.5,3.6,7.6,3.6
	c5.9,0,10.4-4.5,10.4-10.3s-4.5-10.3-10.4-10.3s-10.4,4.5-10.4,10.3C474.3,171,475.1,173.3,476.5,175.5L476.5,175.5
	C476.5,175.1,476.5,175.1,476.5,175.5z"/>
</svg>
